<?xml version="1.0" encoding="UTF-8" standalone="no"?>
<!-- Created with Inkscape (http://www.inkscape.org/) -->
<svg
   xmlns:dc="http://purl.org/dc/elements/1.1/"
   xmlns:cc="http://web.resource.org/cc/"
   xmlns:rdf="http://www.w3.org/1999/02/22-rdf-syntax-ns#"
   xmlns:svg="http://www.w3.org/2000/svg"
   xmlns="http://www.w3.org/2000/svg"
   xmlns:sodipodi="http://sodipodi.sourceforge.net/DTD/sodipodi-0.dtd"
   xmlns:inkscape="http://www.inkscape.org/namespaces/inkscape"
   height="520.16785"
   width="574.1687"
   id="svg2"
   sodipodi:version="0.32"
   inkscape:version="0.44"
   sodipodi:docbase="D:\dokumenty\kot\do wiki\upload"
   sodipodi:docname="Torii.svg"
   version="1.0">
  <defs
     id="defs4" />
  <sodipodi:namedview
     id="base"
     pagecolor="#ffffff"
     bordercolor="#666666"
     borderopacity="1.0"
     inkscape:pageopacity="0.0"
     inkscape:pageshadow="2"
     inkscape:cx="306.50904"
     inkscape:cy="648.19944"
     inkscape:zoom="0.93431378"
     inkscape:document-units="px"
     inkscape:current-layer="layer1"
     inkscape:window-width="1024"
     inkscape:window-height="682"
     inkscape:window-x="-4"
     inkscape:window-y="-4" />
  <g
     inkscape:groupmode="layer"
     inkscape:label="Warstwa 1"
     id="layer1"
     transform="translate(-19.4247,-15.6423)">
    <path
       style="color:black;fill:black;fill-opacity:1;fill-rule:nonzero;stroke:none;stroke-width:1;stroke-linecap:butt;stroke-linejoin:miter;marker:none;marker-start:none;marker-mid:none;marker-end:none;stroke-miterlimit:4;stroke-dashoffset:0;stroke-opacity:1;visibility:visible;display:inline;overflow:visible"
       d="M 29.546863,15.653915 C 28.073223,15.716562 26.790713,16.059948 25.859363,16.810165 C 14.593623,25.884939 21.546863,33.966415 21.546863,33.966415 C 21.546853,33.966415 40.122753,52.519985 42.265613,66.091415 C 44.408473,79.662845 45.140613,96.814625 70.140613,107.52891 C 95.140613,118.2432 92.984363,131.09141 92.984363,131.09141 C 92.984363,131.09141 87.270083,146.81462 117.98436,147.52891 C 134.41162,147.43274 150.83745,147.39289 167.26561,147.37266 C 173.42756,158.82247 190.28431,164.52892 177.79686,164.52891 C 164.18069,164.52891 161.64061,176.43516 161.64061,176.43516 L 109.20311,176.43516 C 109.20311,176.43516 106.60936,176.02947 106.60936,173.43516 C 106.60936,170.84086 101.76561,170.84141 101.76561,170.84141 C 101.76561,170.84141 93.328113,170.18816 93.328113,174.40391 C 93.328113,178.61965 93.328113,220.12266 93.328113,220.12266 C 93.328113,220.12266 92.021073,229.84141 103.04686,229.84141 C 114.07265,229.84141 176.67187,229.84141 176.67186,229.84141 L 176.67186,273.31016 C 176.67186,273.31016 164.67709,274.26244 158.51561,278.15391 C 152.35414,282.04536 152.03453,283.69172 154.95311,289.52891 C 157.87171,295.3661 168.57811,315.77614 168.57811,328.74766 C 168.57811,341.71918 168.57811,519.12268 168.57811,519.12266 C 168.57811,519.12266 167.58726,535.81013 188.82811,535.81016 C 213.314,535.81016 212.3281,520.4039 212.32811,520.40391 L 212.32811,230.49766 L 400.67186,230.49766 L 400.67186,520.40391 C 400.67186,520.40391 399.68597,535.81013 424.17186,535.81016 C 445.41272,535.81016 444.45309,519.12268 444.45311,519.12266 C 444.45311,519.12266 444.45309,341.71918 444.45311,328.74766 C 444.45311,315.77614 455.15954,295.36609 458.07811,289.52891 C 460.9967,283.69173 460.67708,282.04535 454.51561,278.15391 C 448.35414,274.26245 436.32808,273.31015 436.32811,273.31016 L 436.32811,229.84141 C 436.32811,229.84141 498.9273,229.84141 509.95311,229.84141 C 520.9789,229.84141 519.67184,220.12266 519.67186,220.12266 C 519.67186,220.12266 519.67184,178.61965 519.67186,174.40391 C 519.67186,170.18816 511.26562,170.84141 511.26561,170.84141 C 511.26561,170.84141 506.39062,170.84086 506.39061,173.43516 C 506.39061,176.02947 503.79688,176.43516 503.79686,176.43516 L 451.35936,176.43516 C 451.35936,176.43516 448.81927,164.52892 435.20311,164.52891 C 422.87732,164.52891 439.13559,158.96506 445.48436,147.81016 C 461.99577,147.75358 478.50515,147.67518 495.01561,147.52891 C 525.72987,146.81462 520.01561,131.09141 520.01561,131.09141 C 520.01559,131.09141 517.89061,118.2432 542.89061,107.52891 C 567.89061,96.814625 568.5915,79.662845 570.73436,66.091415 C 572.87724,52.519985 591.45311,33.966415 591.45311,33.966415 C 591.45313,33.966415 598.43761,25.884937 587.17186,16.810165 C 582.20468,12.80901 567.17186,20.372665 567.17186,20.372665 C 461.05572,80.051245 135.04304,79.417225 45.859363,20.372665 C 45.859373,20.372663 35.932653,15.382445 29.546863,15.653915 z M 227.70311,147.40391 C 245.38782,147.44597 263.08057,147.49512 280.76561,147.56016 L 280.76561,181.56016 L 238.45311,181.56016 C 238.45311,181.56016 230.81928,164.52891 217.20311,164.52891 C 204.72909,164.52892 221.52486,158.82906 227.70311,147.40391 z M 332.26561,147.74766 C 350.02827,147.80569 367.78456,147.85297 385.54686,147.87266 C 391.92492,158.98688 408.13143,164.52891 395.82811,164.52891 C 382.21195,164.52892 374.54686,181.56016 374.54686,181.56016 L 332.26561,181.56016 L 332.26561,147.74766 z "
       id="path2051" />
  </g>
</svg>
